<svg width="96" height="96" viewBox="0 0 96 96" fill="none" xmlns="http://www.w3.org/2000/svg">
<g clip-path="url(#clip0)">
<path d="M57.9316 12.3966C55.576 12.3966 53.7368 10.4753 53.7368 8.20188C53.7368 5.72856 55.8904 3.78306 58.3446 4.02813C60.5251 4.26063 62.1263 6.06119 62.1263 8.20188C62.1263 10.4763 60.2881 12.3966 57.9316 12.3966Z" fill="#FEA9A6"/>
<path d="M86.1769 53.1885H86.179C86.3971 50.8834 88.4442 49.191 90.7512 49.4089C93.0563 49.627 94.7489 51.6743 94.5308 53.9813C94.323 56.152 92.4962 57.7795 90.3589 57.7795C87.8684 57.7797 85.945 55.6416 86.1769 53.1885Z" fill="#E6605B"/>
<path d="M85.0507 39.5912C84.4507 37.3534 85.7783 35.0546 88.0163 34.4546C90.2542 33.8548 92.5552 35.1825 93.155 37.4205C93.755 39.6583 92.4252 41.9591 90.1893 42.5591C89.8242 42.6557 89.4593 42.7016 89.1007 42.7016C87.2467 42.7016 85.5518 41.4664 85.0507 39.5912Z" fill="#ED7F7B"/>
<path d="M79.2241 27.2734C77.8755 25.3879 78.3098 22.7682 80.1931 21.4197C82.0767 20.0732 84.6961 20.5052 86.0447 22.3907C87.3932 24.274 86.959 26.8937 85.0757 28.2422C84.3353 28.7708 83.4839 29.0267 82.6386 29.0267C81.3299 29.0267 80.0421 28.4164 79.2241 27.2734Z" fill="#FEA9A6"/>
<path d="M68.3094 11.9374C69.6035 10.0161 72.2107 9.51062 74.1318 10.8047C76.0528 12.1009 76.5603 14.7081 75.2643 16.627C74.4549 17.8289 73.1313 18.4769 71.7828 18.4769C68.4517 18.4769 66.4237 14.7321 68.3094 11.9374Z" fill="#FEA9A6"/>
<path d="M86.2502 72.3523C83.942 72.3523 82.0554 70.4747 82.0554 68.1576C82.0554 65.6794 84.2055 63.7401 86.6634 63.9836C88.8817 64.2274 90.4449 66.0444 90.4449 68.1576C90.4449 70.4175 88.6121 72.3523 86.2502 72.3523Z" fill="#E6605B"/>
<path d="M80.7742 76.161C79.1084 74.7913 76.6762 74.9091 75.1492 76.432C68.2644 83.298 58.993 87.3212 49.1855 87.5952C28.0876 88.1845 10.4438 71.4996 9.85453 50.4017C9.43584 35.4156 17.8171 21.7528 30.8388 15.1648L32.1867 20.691C32.4978 21.9668 34.0876 22.4068 35.0105 21.4727L47.8439 8.48197C48.722 7.59322 48.3554 6.09097 47.1669 5.7064L29.7931 0.0840293C28.5438 -0.320221 27.3352 0.802342 27.6464 2.07809L28.8072 6.83703C11.9337 14.5028 0.939467 31.7035 1.46822 50.6359C2.1884 76.4183 23.635 96.7017 49.4197 95.9813C61.3752 95.6473 72.6768 90.7442 81.0689 82.3767C82.8267 80.6241 82.6915 77.7375 80.7742 76.161Z" fill="#E6605B"/>
<path d="M90.2702 49.3918C90.6759 50.112 90.8745 50.9587 90.7908 51.8441C90.5857 53.9882 88.8002 55.5994 86.6968 55.6387C87.4112 56.9074 88.769 57.7796 90.3592 57.7796C92.4965 57.7796 94.3233 56.1521 94.5311 53.9814C94.7657 51.4999 92.7943 49.3429 90.2702 49.3918Z" fill="#FD0900"/>
<path d="M93.1549 37.4205C92.6449 35.5178 90.9051 34.2739 89.0198 34.3123C90.5681 37.0691 88.6224 40.4978 85.4451 40.5617C86.1846 41.8806 87.5895 42.7016 89.1006 42.7016C89.4593 42.7016 89.8241 42.6555 90.1892 42.5591C92.4249 41.9591 93.7547 39.6583 93.1549 37.4205Z" fill="#FF5852"/>
<path d="M86.045 22.3907C85.2088 21.2217 83.8841 20.6129 82.5491 20.6387C84.1081 23.4015 82.1332 26.8259 78.9792 26.8866C79.7516 28.2584 81.1676 29.0269 82.6387 29.0269C86.0219 29.0267 88.0378 25.1738 86.045 22.3907Z" fill="#FF5852"/>
<path d="M74.1317 10.8047C73.3856 10.3022 72.536 10.0742 71.7002 10.092C72.4513 11.4308 72.4413 13.1318 71.5239 14.4897C70.7334 15.6634 69.4522 16.3073 68.1367 16.3367C68.8368 17.5795 70.1529 18.4768 71.7825 18.4768C73.131 18.4768 74.4545 17.8288 75.264 16.627C76.5603 14.7081 76.0528 12.1009 74.1317 10.8047Z" fill="#FF6A65"/>
<path d="M86.6637 63.9837C86.4955 63.967 86.3292 63.9615 86.1646 63.9647C86.5096 64.5777 86.705 65.2797 86.705 66.0203C86.705 68.2529 84.9158 70.1667 82.5957 70.2128C83.3168 71.4895 84.6863 72.3522 86.2505 72.3522C88.6122 72.3522 90.4452 70.4174 90.4452 68.1574C90.4452 66.0445 88.8818 64.2276 86.6637 63.9837Z" fill="#FD0900"/>
<path d="M80.7743 76.161C79.9412 75.4761 78.9167 75.1631 77.9094 75.2119C78.8706 76.8143 78.6772 78.9422 77.2706 80.3449C68.8785 88.7127 57.5769 93.6156 45.6214 93.9495C37.9777 94.1631 30.7153 92.5305 24.261 89.4563C31.6037 93.8282 40.2358 96.238 49.4196 95.9815C61.3751 95.6475 72.6767 90.7444 81.0688 82.3768C82.8268 80.6241 82.6916 77.7375 80.7743 76.161Z" fill="#FD0900"/>
</g>
<defs>
<clipPath id="clip0">
<rect width="96" height="96" fill="white"/>
</clipPath>
</defs>
</svg>
