<svg width="53" height="53" viewBox="0 0 53 53" fill="none" xmlns="http://www.w3.org/2000/svg">
<g clip-path="url(#clip0)">
<path d="M31.9831 6.84391C30.6826 6.84391 29.6672 5.78318 29.6672 4.52806C29.6672 3.16258 30.8562 2.0885 32.2111 2.2238C33.4149 2.35216 34.2989 3.34622 34.2989 4.52806C34.2989 5.7837 33.2841 6.84391 31.9831 6.84391Z" fill="#FEA9A6"/>
<path d="M47.5769 29.3645H47.578C47.6984 28.0919 48.8286 27.1575 50.1022 27.2778C51.3749 27.3982 52.3093 28.5285 52.1889 29.8022C52.0742 31.0006 51.0657 31.8991 49.8857 31.8991C48.5107 31.8992 47.4488 30.7188 47.5769 29.3645Z" fill="#E6605B"/>
<path d="M46.9551 21.8577C46.6238 20.6222 47.3568 19.3531 48.5924 19.0219C49.8278 18.6907 51.0982 19.4237 51.4293 20.6593C51.7606 21.8947 51.0265 23.165 49.792 23.4962C49.5905 23.5495 49.389 23.5749 49.191 23.5749C48.1675 23.5749 47.2318 22.8929 46.9551 21.8577Z" fill="#ED7F7B"/>
<path d="M43.7383 15.0572C42.9938 14.0162 43.2336 12.5699 44.2733 11.8254C45.3132 11.0821 46.7593 11.3206 47.5039 12.3615C48.2484 13.4012 48.0087 14.8476 46.9689 15.592C46.5602 15.8839 46.0901 16.0252 45.6234 16.0252C44.9009 16.0252 44.19 15.6882 43.7383 15.0572Z" fill="#FEA9A6"/>
<path d="M37.7125 6.59041C38.427 5.52969 39.8663 5.25061 40.927 5.96507C41.9875 6.68068 42.2677 8.12006 41.5522 9.17944C41.1053 9.84297 40.3746 10.2007 39.6301 10.2007C37.7911 10.2007 36.6714 8.13331 37.7125 6.59041Z" fill="#FEA9A6"/>
<path d="M47.6174 39.9445C46.3431 39.9445 45.3015 38.9079 45.3015 37.6286C45.3015 36.2605 46.4885 35.1898 47.8455 35.3243C49.0702 35.4589 49.9332 36.462 49.9332 37.6286C49.9332 38.8763 48.9214 39.9445 47.6174 39.9445Z" fill="#E6605B"/>
<path d="M44.5941 42.0472C43.6745 41.291 42.3317 41.356 41.4886 42.1968C37.6877 45.9874 32.5691 48.2086 27.1545 48.3598C15.5067 48.6852 5.76591 39.4737 5.44057 27.8259C5.20941 19.5523 9.83656 12.0094 17.0256 8.37224L17.7698 11.4232C17.9415 12.1275 18.8192 12.3704 19.3287 11.8547L26.4139 4.68274C26.8986 4.19208 26.6963 3.36271 26.0401 3.1504L16.4483 0.0463785C15.7586 -0.176801 15.0913 0.442947 15.2632 1.14727L15.904 3.7746C6.58845 8.00673 0.518707 17.5029 0.810621 27.9552C1.20822 42.1892 13.0485 53.3874 27.2838 52.9897C33.8843 52.8053 40.1237 50.0984 44.7568 45.4788C45.7273 44.5112 45.6527 42.9176 44.5941 42.0472Z" fill="#E6605B"/>
<path d="M49.8367 27.2684C50.0607 27.666 50.1703 28.1335 50.1242 28.6223C50.0109 29.806 49.0251 30.6955 47.8639 30.7172C48.2583 31.4176 49.0079 31.8992 49.8859 31.8992C51.0658 31.8992 52.0744 31.0006 52.1891 29.8022C52.3186 28.4322 51.2302 27.2414 49.8367 27.2684Z" fill="#FD0900"/>
<path d="M51.4293 20.6592C51.1477 19.6087 50.1872 18.922 49.1464 18.9432C50.0012 20.4652 48.927 22.3581 47.1729 22.3934C47.5811 23.1215 48.3568 23.5748 49.191 23.5748C49.389 23.5748 49.5905 23.5494 49.792 23.4962C51.0263 23.1649 51.7605 21.8947 51.4293 20.6592Z" fill="#FF5852"/>
<path d="M47.504 12.3615C47.0424 11.7161 46.311 11.38 45.574 11.3943C46.4347 12.9196 45.3444 14.8101 43.6031 14.8436C44.0295 15.601 44.8113 16.0253 45.6235 16.0253C47.4913 16.0252 48.6042 13.898 47.504 12.3615Z" fill="#FF5852"/>
<path d="M40.927 5.9651C40.5151 5.68768 40.0461 5.56181 39.5846 5.57164C39.9993 6.31074 39.9938 7.24983 39.4873 7.99949C39.0509 8.6475 38.3436 9.00297 37.6173 9.01923C38.0038 9.70533 38.7304 10.2008 39.6301 10.2008C40.3746 10.2008 41.1053 9.843 41.5521 9.17947C42.2679 8.12009 41.9876 6.68071 40.927 5.9651Z" fill="#FF6A65"/>
<path d="M47.8456 35.3243C47.7528 35.3151 47.6609 35.3121 47.57 35.3138C47.7605 35.6522 47.8684 36.0398 47.8684 36.4487C47.8684 37.6812 46.8806 38.7378 45.5997 38.7633C45.9979 39.4681 46.7539 39.9444 47.6175 39.9444C48.9213 39.9444 49.9333 38.8762 49.9333 37.6286C49.9333 36.462 49.0702 35.459 47.8456 35.3243Z" fill="#FD0900"/>
<path d="M44.5942 42.0472C44.1343 41.6691 43.5687 41.4963 43.0126 41.5232C43.5432 42.4079 43.4365 43.5827 42.6599 44.3571C38.0268 48.9768 31.7873 51.6836 25.1869 51.868C20.967 51.9859 16.9575 51.0846 13.3942 49.3873C17.4479 51.801 22.2136 53.1314 27.2838 52.9898C33.8843 52.8054 40.1237 50.0985 44.7568 45.4789C45.7274 44.5112 45.6528 42.9176 44.5942 42.0472Z" fill="#FD0900"/>
</g>
<defs>
<clipPath id="clip0">
<rect width="53" height="53" fill="white"/>
</clipPath>
</defs>
</svg>
