<svg width="10" height="10" viewBox="0 0 10 10" fill="none" xmlns="http://www.w3.org/2000/svg">
<g clip-path="url(#clip0)">
<path d="M9.75579 3.75004H9.0681C9.0681 3.69722 9.06103 3.64356 9.04539 3.59032C8.52239 1.81161 6.86093 0.569336 5.00523 0.569336C3.14996 0.569336 1.4886 1.8113 0.96529 3.58958C0.877087 3.88949 1.04864 4.20417 1.34855 4.29237C1.64813 4.38047 1.96303 4.20902 2.05134 3.90913C2.43384 2.60927 3.64855 1.70133 5.00523 1.70133C6.30561 1.70133 7.47312 2.53617 7.90505 3.74993H7.24905C6.98855 3.74993 6.92664 3.89931 7.11088 4.08343L8.16883 5.14159C8.35306 5.32583 8.6517 5.32583 8.83591 5.14159L9.89396 4.08355C10.0781 3.89939 10.0163 3.75004 9.75579 3.75004Z" fill="#E6605B" fill-opacity="0.5"/>
<path d="M8.65092 5.70761C8.35111 5.61972 8.03633 5.79084 7.94821 6.09085C7.56571 7.3907 6.35089 8.2985 4.99432 8.2985C3.69394 8.2985 2.52645 7.46357 2.0945 6.24992H2.75049C3.011 6.24992 3.07279 6.10056 2.88867 5.91643L1.83061 4.85838C1.64639 4.67416 1.34774 4.67416 1.16352 4.85838L0.105569 5.91643C-0.0786559 6.10067 -0.0167586 6.24992 0.243742 6.24992H0.931326C0.931326 6.30274 0.938403 6.3563 0.954145 6.40953C1.47715 8.18823 3.13848 9.43049 4.9943 9.43049C6.8497 9.43049 8.51103 8.18855 9.03424 6.41027C9.12246 6.11051 8.95092 5.79581 8.65092 5.70761Z" fill="#E6605B"/>
</g>
<defs>
<clipPath id="clip0">
<rect width="10" height="10" fill="white"/>
</clipPath>
</defs>
</svg>
