<svg width="13" height="12" viewBox="0 0 13 12" fill="none" xmlns="http://www.w3.org/2000/svg">
<path d="M10.158 12C10.0678 12 9.97731 11.9799 9.89398 11.9392L6.5 10.2803L3.10601 11.9392C3.02265 11.9799 2.93214 12 2.84197 12C2.72193 12 2.60251 11.9644 2.50154 11.8945C2.32479 11.7721 2.23443 11.5652 2.26756 11.3587L2.85142 7.7182L0.167024 5.10562C0.0146301 4.95732 -0.0387155 4.73996 0.0287473 4.54213C0.0961847 4.34433 0.273157 4.19904 0.48753 4.16552L4.2431 3.57831L5.9821 0.304258C6.08123 0.117548 6.28136 0 6.5 0C6.71863 0 6.91876 0.117573 7.01786 0.304258L8.75686 3.57831L12.5125 4.16552C12.7269 4.19904 12.9038 4.34433 12.9713 4.54213C13.0387 4.73996 12.9854 4.95732 12.833 5.10562L10.1486 7.71815L10.7324 11.3586C10.7655 11.5652 10.6752 11.7721 10.4984 11.8945C10.3975 11.9644 10.278 12 10.158 12Z" fill="#FED700"/>
</svg>
