<svg width="15" height="15" viewBox="0 0 15 15" fill="none" xmlns="http://www.w3.org/2000/svg">
<path d="M11.5823 14.069C11.4818 14.069 11.381 14.0468 11.2881 14.0018L7.5052 12.1714L3.72232 14.0018C3.62941 14.0468 3.52852 14.069 3.42803 14.069C3.29423 14.069 3.16113 14.0297 3.04858 13.9526C2.85159 13.8175 2.75087 13.5892 2.7878 13.3613L3.43856 9.3442L0.446577 6.46136C0.276721 6.29772 0.217262 6.05787 0.292455 5.83958C0.36762 5.62131 0.56487 5.461 0.803807 5.42401L4.9897 4.77606L6.92797 1.16331C7.03845 0.957284 7.26151 0.827576 7.5052 0.827576C7.74889 0.827576 7.97195 0.957311 8.08241 1.16331L10.0207 4.77606L14.2066 5.42401C14.4456 5.461 14.6428 5.62131 14.718 5.83958C14.7931 6.05787 14.7337 6.29772 14.5638 6.46136L11.5719 9.34415L12.2226 13.3612C12.2595 13.5892 12.1588 13.8175 11.9618 13.9525C11.8493 14.0296 11.7161 14.069 11.5823 14.069Z" fill="url(#paint0_linear)"/>
<defs>
<linearGradient id="paint0_linear" x1="15" y1="7" x2="-3.5367e-06" y2="7" gradientUnits="userSpaceOnUse">
<stop stop-color="#B34788"/>
<stop offset="1" stop-color="#FC7A7A"/>
</linearGradient>
</defs>
</svg>
